<?xml version="1.0" ?><svg enable-background="new 0 0 164.3715 208.9043" id="apple" version="1.1" viewBox="0 0 164.3715 208.9043" xml:space="preserve" xmlns="http://www.w3.org/2000/svg" xmlns:xlink="http://www.w3.org/1999/xlink"><g><path d="M124.9438,4.2188L124.7211,0l-4.1992,0.4531c-0.4102,0.043-41.0098,4.9375-43.793,50.3242l-0.2793,4.543   l4.543-0.3086C81.4575,54.9805,127.436,51.3105,124.9438,4.2188z" fill="#535353"/><path d="M117.018,9.2891C116.2524,36.6426,94.975,44.25,85.2075,46.3027   C88.9262,19.7188,108.2036,11.6211,117.018,9.2891z" fill="#D8D8D8"/><path d="M164.0708,150.0684l-2.5566-0.8262c-15.4668-5-25.8574-19.1699-25.8574-35.2578   c0-14.3125,8.0938-27.1133,21.123-33.4082l3.8867-1.877l-2.168-3.7324c-0.9297-1.6016-9.6055-15.7734-27.9316-20.4629   c-14.5371-3.7207-30.8809-0.4297-48.5977,9.7871c-7.498-4.5527-32.4121-17.6738-52.2305-4.5215   c-3.8789,2.1445-45.002,26.7793-23.5996,93.2539c0.6289,1.4883,15.5527,36.4531,33.2129,49.5469   c4.7637,4.5527,16.9492,10.2402,30.8711,0.748c2.4121-0.9941,18.5527-7.207,28.793,0.0664   c3.7793,2.5879,10.3809,5.5195,17.3535,5.5195c5.2871,0,10.7891-1.6855,15.4356-6.4844   c2.168-1.877,21.9707-19.5527,32.2656-47.5508l0.3008-0.8164L164.0708,150.0684z" fill="#535353"/><path d="M126.4633,196.4609l-0.3086,0.291c-8.7734,9.2129-22.0703,0.4004-22.5645,0.0723   c-5.2305-3.7188-11.293-4.9316-16.9766-4.9316c-10.3164,0-19.3867,3.9941-19.9668,4.2559l-0.6523,0.3691   c-12.0742,8.4277-20.3438,1.0137-21.2207,0.168l-0.4707-0.4043c-15.9727-11.6484-30.6504-46.0293-30.6719-46.041   C-6.4019,87.9688,31.9731,67.6016,33.604,66.7715l0.4414-0.2578c18.5879-12.4805,45.3066,5.582,45.5723,5.7656l2.1309,1.4629   l2.207-1.334c16.6406-10.0586,31.6562-13.4785,44.627-10.1543c10.5664,2.7031,17.3047,9.3066,20.5996,13.3672   c-13.3867,8.2051-21.5254,22.5195-21.5254,38.3633c0,18.2227,10.9414,34.416,27.6094,41.4609   C145.0083,180.4883,126.6567,196.2969,126.4633,196.4609z" fill="#D8D8D8"/></g></svg>