<?xml version="1.0" ?><!DOCTYPE svg  PUBLIC '-//W3C//DTD SVG 1.1//EN'  'http://www.w3.org/Graphics/SVG/1.1/DTD/svg11.dtd'><svg height="8.4666mm" style="shape-rendering:geometricPrecision; text-rendering:geometricPrecision; image-rendering:optimizeQuality; fill-rule:evenodd; clip-rule:evenodd" version="1.1" viewBox="0 0 847 847" width="8.4666mm" xml:space="preserve" xmlns="http://www.w3.org/2000/svg" xmlns:xlink="http://www.w3.org/1999/xlink"><defs><style type="text/css">
   <![CDATA[
    .fil0 {fill:#4D63D2}
    .fil1 {fill:#FEFEFE;fill-rule:nonzero}
   ]]>
  </style></defs><g id="Layer_x0020_1"><circle class="fil0" cx="423" cy="423" r="342"/><path class="fil1" d="M232 266l0 0 383 0c5,0 10,5 10,10l0 0 0 295c0,6 -5,10 -10,10l0 0 -383 0c-6,0 -10,-4 -10,-10l0 0 0 -295c0,-5 4,-10 10,-10zm373 20l-363 0 0 275 363 0 0 -275z"/><path class="fil1" d="M476 217c3,-4 10,-5 14,-1 4,3 4,9 1,14 -30,35 -52,71 -68,107 -14,32 -22,65 -24,98l59 0c6,0 10,4 10,10 0,0 0,1 0,2l0 0 0 0c-7,35 -9,66 -6,95 3,29 11,54 24,76 3,5 1,11 -4,14 -4,3 -11,1 -13,-4 -15,-25 -24,-53 -27,-84 -3,-27 -1,-57 4,-89l-58 0 0 0c-6,0 -10,-5 -10,-11 1,-39 10,-77 27,-115 16,-38 40,-75 71,-112z"/><path class="fil1" d="M297 495c-5,-3 -7,-9 -5,-14 3,-4 9,-7 14,-4 38,19 78,29 118,29 40,0 80,-10 122,-29 5,-2 11,0 13,5 3,5 0,11 -5,13 -44,20 -87,31 -130,31 -43,0 -86,-11 -127,-31z"/><path class="fil1" d="M497 326c0,-5 5,-10 10,-10 6,0 10,5 10,10l0 40c0,6 -4,10 -10,10 -5,0 -10,-4 -10,-10l0 -40z"/><path class="fil1" d="M330 326c0,-5 4,-10 10,-10 5,0 10,5 10,10l0 40c0,6 -5,10 -10,10 -6,0 -10,-4 -10,-10l0 -40z"/></g></svg>