<?xml version="1.0" ?><!DOCTYPE svg  PUBLIC '-//W3C//DTD SVG 1.1//EN'  'http://www.w3.org/Graphics/SVG/1.1/DTD/svg11.dtd'><svg height="8.4666mm" style="shape-rendering:geometricPrecision; text-rendering:geometricPrecision; image-rendering:optimizeQuality; fill-rule:evenodd; clip-rule:evenodd" version="1.1" viewBox="0 0 847 847" width="8.4666mm" xml:space="preserve" xmlns="http://www.w3.org/2000/svg" xmlns:xlink="http://www.w3.org/1999/xlink"><defs><style type="text/css">
   <![CDATA[
    .fil1 {fill:#FEFEFE}
    .fil0 {fill:#0081C2}
   ]]>
  </style></defs><g id="Layer_x0020_1"><circle class="fil0" cx="423" cy="423" r="342"/><path class="fil1" d="M523 362c6,0 10,4 10,9 0,5 -4,9 -10,9 -5,0 -9,-4 -9,-9 0,-5 4,-9 9,-9z"/><path class="fil1" d="M157 438l19 -3c1,3 2,6 5,8 2,2 5,3 10,3 4,0 8,-1 10,-3 2,-1 3,-3 3,-5 0,-1 -1,-2 -2,-3 0,-1 -2,-2 -6,-3 -15,-3 -24,-6 -28,-9 -5,-3 -8,-9 -8,-15 0,-6 2,-12 7,-16 5,-4 12,-6 22,-6 10,0 17,2 21,5 5,3 8,8 10,14l-17 3c-1,-3 -3,-5 -5,-6 -2,-2 -5,-3 -9,-3 -4,0 -8,1 -10,2 -1,1 -2,3 -2,4 0,2 0,3 2,4 1,1 7,3 17,5 10,2 17,5 21,8 3,3 5,8 5,14 0,6 -2,12 -8,16 -5,5 -13,7 -23,7 -10,0 -17,-2 -23,-6 -5,-4 -9,-9 -11,-15zm73 -50l19 0 17 49 16 -49 19 0 -24 67 -5 12c-1,4 -3,7 -4,9 -2,2 -4,4 -5,5 -2,2 -5,3 -8,3 -2,1 -5,1 -9,1 -3,0 -7,0 -10,-1l-2 -14c3,1 6,1 8,1 4,0 7,-1 9,-4 2,-2 4,-6 5,-10l-26 -69zm82 0l17 0 0 9c6,-7 13,-11 21,-11 5,0 9,1 12,3 3,2 6,5 8,8 3,-3 6,-6 10,-8 3,-2 7,-3 11,-3 5,0 10,1 13,3 4,2 6,5 8,9 1,3 2,8 2,15l0 44 -18 0 0 -39c0,-7 -1,-12 -2,-14 -2,-2 -5,-4 -8,-4 -3,0 -5,1 -8,3 -2,1 -3,3 -4,7 -1,3 -2,7 -2,14l0 33 -18 0 0 -38c0,-7 -1,-11 -1,-13 -1,-2 -2,-3 -3,-4 -2,-1 -4,-2 -6,-2 -3,0 -5,1 -8,3 -2,1 -3,3 -4,6 -1,3 -2,8 -2,14l0 34 -18 0 0 -69zm119 69l0 -96 19 0 0 35c6,-7 12,-10 20,-10 9,0 15,3 21,9 6,7 8,15 8,27 0,12 -2,21 -8,27 -6,7 -13,10 -21,10 -4,0 -8,-1 -11,-3 -4,-2 -8,-5 -10,-9l0 10 -18 0zm19 -36c0,7 1,13 3,16 3,5 7,8 13,8 4,0 7,-2 10,-6 3,-3 4,-9 4,-16 0,-8 -1,-14 -4,-17 -3,-4 -6,-6 -11,-6 -4,0 -8,2 -11,5 -3,4 -4,9 -4,16zm64 36l0 -69 19 0 0 69 -19 0zm51 -48l-16 -3c1,-7 5,-12 9,-15 5,-3 12,-5 21,-5 8,0 14,1 18,3 4,2 7,4 8,7 2,3 3,9 3,17l0 21c0,7 0,11 1,14 0,3 1,6 3,9l-18 0c-1,-1 -1,-3 -2,-5 0,-1 -1,-2 -1,-2 -3,3 -6,5 -10,7 -3,1 -7,2 -11,2 -7,0 -13,-2 -17,-6 -4,-4 -6,-9 -6,-15 0,-3 1,-7 2,-10 2,-3 5,-5 8,-7 4,-2 9,-3 15,-4 9,-2 15,-4 18,-5l0 -2c0,-3 -1,-6 -3,-7 -2,-2 -5,-3 -10,-3 -3,0 -6,1 -7,2 -2,2 -4,4 -5,7zm25 15c-2,1 -6,2 -11,3 -5,1 -9,2 -10,3 -3,2 -4,4 -4,6 0,3 1,5 3,7 2,2 4,3 7,3 4,0 7,-1 10,-3 2,-2 3,-4 4,-6 1,-2 1,-5 1,-9l0 -4zm99 33l-18 0 0 -35c0,-8 0,-13 -1,-15 -1,-2 -2,-4 -4,-5 -2,-1 -4,-2 -6,-2 -4,0 -7,1 -9,3 -3,2 -4,4 -5,7 -1,3 -2,8 -2,16l0 31 -18 0 0 -69 17 0 0 10c6,-8 14,-12 23,-12 4,0 8,1 11,2 3,2 6,4 8,6 1,2 3,5 3,8 1,3 1,7 1,12l0 43z"/></g></svg>