<?xml version="1.0" ?><!DOCTYPE svg  PUBLIC '-//W3C//DTD SVG 1.1//EN'  'http://www.w3.org/Graphics/SVG/1.1/DTD/svg11.dtd'><svg height="43.3492mm" style="shape-rendering:geometricPrecision; text-rendering:geometricPrecision; image-rendering:optimizeQuality; fill-rule:evenodd; clip-rule:evenodd" version="1.1" viewBox="0 0 258 258" width="43.3492mm" xml:space="preserve" xmlns="http://www.w3.org/2000/svg" xmlns:xlink="http://www.w3.org/1999/xlink"><defs><style type="text/css">
   <![CDATA[
    .fil2 {fill:#055C96}
    .fil0 {fill:#0771B9}
    .fil1 {fill:white}
   ]]>
  </style></defs><g id="Layer_x0020_1"><g id="_445041760"><rect class="fil0" height="258" rx="28" ry="28" width="258"/><path class="fil1" d="M65 69c1,-1 3,-2 4,-3 7,-4 75,-2 91,-2 17,0 22,7 22,22 -1,12 0,31 0,38 0,8 1,23 -3,29 -1,3 -5,6 -8,7 -5,2 -10,1 -15,1 -21,0 -42,0 -64,0l-19 23 9 -23c-4,0 -8,0 -11,-1 -7,-3 -10,-9 -11,-16l0 -50c0,-9 -1,-18 5,-25zm71 64c8,0 20,2 22,-6 2,-10 -12,-7 -19,-8l-3 14zm-29 8c8,1 20,2 22,-6 2,-10 -12,-7 -19,-7l-3 13zm4 -21c8,0 20,1 22,-6 2,-10 -12,-8 -19,-8l-3 14zm-28 0c7,0 19,1 21,-6 3,-10 -11,-8 -19,-8l-2 14zm58 -9c7,0 19,2 21,-5 3,-11 -12,-8 -19,-9l-2 14zm-54 -12c7,0 19,1 21,-5 3,-11 -10,-9 -18,-9 -2,1 -1,2 -2,7 -1,2 -1,4 -1,7zm28 0c7,0 19,1 21,-5 4,-11 -10,-9 -17,-9 -2,1 -4,12 -4,14zm73 -22c7,1 9,7 10,13 2,12 2,69 0,75 -3,12 -13,11 -21,12l10 23 -20 -22 -49 -1c-10,0 -19,-1 -23,-8 1,0 2,-1 2,-1l26 0c10,0 19,0 29,0 10,0 17,1 25,-4 9,-5 10,-10 12,-19 0,-1 0,-1 0,-2 1,-9 -1,-39 -1,-56 0,-6 1,-8 0,-10zm-96 95c0,0 0,1 0,1 7,9 14,9 27,9l45 0c1,1 28,30 31,33l-10 -33c10,-2 14,-6 16,-11 2,-3 2,-5 3,-8 2,-14 1,-50 0,-67 0,-7 -2,-15 -6,-20 -2,-2 -7,-5 -12,-6 -2,-3 -3,-5 -7,-8 -7,-6 -17,-5 -25,-5l-73 0c-10,0 -20,3 -25,12 -4,8 -3,13 -3,22 0,17 0,35 0,52 0,2 0,3 0,4 1,3 4,10 6,12 2,4 6,7 13,8l-10 35c10,-10 20,-21 30,-30z"/><path class="fil2" d="M258 140l-56 -57c1,4 2,9 2,13 1,17 2,53 0,67 -1,3 -1,5 -3,8 -2,5 -6,9 -16,11l10 33c-3,-3 -30,-32 -31,-33l-45 0c-13,0 -20,0 -27,-9l0 -1c-11,9 -20,20 -30,30l57 56 111 0 28 -28 0 -90z"/><path class="fil2" d="M152 168l-29 0 -26 0 -2 1c4,7 13,8 23,8l49 1 20 22 -10 -23c8,-1 18,0 21,-12 2,-6 2,-63 0,-75 -1,-6 -3,-12 -10,-13 1,2 0,4 0,10 0,17 2,47 1,56 0,1 0,1 0,2 -2,9 -3,14 -12,19 -8,5 -15,4 -25,4z"/></g></g></svg>